<?xml version="1.0" standalone="no"?><!DOCTYPE svg PUBLIC "-//W3C//DTD SVG 1.1//EN" "http://www.w3.org/Graphics/SVG/1.1/DTD/svg11.dtd"><svg class="icon" width="200px" height="200.00px" viewBox="0 0 1024 1024" version="1.1" xmlns="http://www.w3.org/2000/svg"><path d="M61.44 204.8m81.92 0l737.28 0q81.92 0 81.92 81.92l0 645.12q0 81.92-81.92 81.92l-737.28 0q-81.92 0-81.92-81.92l0-645.12q0-81.92 81.92-81.92Z" fill="#69C0FF" /><path d="M142.92992 97.28h737.28a81.92 81.92 0 0 1 81.92 81.92v174.08h-901.12v-174.08a81.92 81.92 0 0 1 81.92-81.92z" fill="#40A9FF" /><path d="M367.16544 754.96448l69.28384-37.888a150.05696 150.05696 0 0 0 77.04576-149.15584A121.25184 121.25184 0 0 0 393.07264 460.8H389.12a137.46176 137.46176 0 0 0-133.7856 105.8816l-8.7552 37.07904a30.72 30.72 0 0 0 59.8016 14.12096l8.7552-37.07904A76.02176 76.02176 0 0 1 389.12 522.24h3.95264a59.81184 59.81184 0 0 1 59.40224 52.8384 88.61696 88.61696 0 0 1-45.49632 88.08448l-69.29408 37.888a178.8928 178.8928 0 0 0-91.68896 134.83008A30.72 30.72 0 0 0 276.48 870.4h225.28a30.72 30.72 0 0 0 0-61.44H316.79488a117.4528 117.4528 0 0 1 50.37056-53.99552zM696.32 839.68a30.72 30.72 0 0 0 61.44 0V491.52c0-30.0544-38.69696-42.22976-55.9104-17.59232l-20.04992 28.71296a139.81696 139.81696 0 0 1-67.51232 51.57888 30.72 30.72 0 0 0 20.70528 57.84576 201.24672 201.24672 0 0 0 57.09824-31.6928l4.22912-3.44064V839.68z" fill="#91D5FF" /><path d="M256 204.8m-61.44 0a61.44 61.44 0 1 0 122.88 0 61.44 61.44 0 1 0-122.88 0Z" fill="#40A9FF" /><path d="M225.28 32.43008V189.44a30.72 30.72 0 0 0 61.44 0V32.43008a30.72 30.72 0 0 0-61.44 0z" fill="#91D5FF" /><path d="M768 204.8m-61.44 0a61.44 61.44 0 1 0 122.88 0 61.44 61.44 0 1 0-122.88 0Z" fill="#40A9FF" /><path d="M737.28 32.43008V189.44a30.72 30.72 0 0 0 61.44 0V32.43008a30.72 30.72 0 0 0-61.44 0z" fill="#91D5FF" /></svg>