<?xml version="1.0" standalone="no"?><!DOCTYPE svg PUBLIC "-//W3C//DTD SVG 1.1//EN" "http://www.w3.org/Graphics/SVG/1.1/DTD/svg11.dtd"><svg class="icon" width="200px" height="200.00px" viewBox="0 0 1024 1024" version="1.1" xmlns="http://www.w3.org/2000/svg"><path d="M133.12 117.76h256c67.86048 0 122.88 55.01952 122.88 122.88v532.48H133.12c-67.86048 0-122.88-55.01952-122.88-122.88v-409.6c0-67.86048 55.01952-122.88 122.88-122.88z" fill="#69C0FF" /><path d="M133.12 117.76h256c67.86048 0 122.88 55.01952 122.88 122.88v163.84H10.24v-163.84c0-67.86048 55.01952-122.88 122.88-122.88z" fill="#40A9FF" /><path d="M568.32 231.43424l141.90592-4.48512a122.88 122.88 0 0 1 90.35776 35.5328l187.02336 185.27232A122.88 122.88 0 0 1 1024 535.04v113.52064c0 67.86048-55.01952 122.88-122.88 122.88a122.88 122.88 0 0 1-1.65888-0.01024L568.32 766.96576V231.424z" fill="#69C0FF" /><path d="M712.47872 225.28a122.88 122.88 0 0 1 86.48704 35.584L918.07744 378.88H568.32V225.28h144.15872z" fill="#40A9FF" /><path d="M235.52 788.48m-128 0a128 128 0 1 0 256 0 128 128 0 1 0-256 0Z" fill="#40A9FF" /><path d="M235.52 788.48m-64 0a64 64 0 1 0 128 0 64 64 0 1 0-128 0Z" fill="#91D5FF" /><path d="M814.08 773.12m-128 0a128 128 0 1 0 256 0 128 128 0 1 0-256 0Z" fill="#40A9FF" /><path d="M814.08 773.12m-64 0a64 64 0 1 0 128 0 64 64 0 1 0-128 0Z" fill="#91D5FF" /><path d="M721.92 422.7584V532.48h110.6944a61.44 61.44 0 0 0 43.008-105.30816L826.368 378.88a61.44 61.44 0 0 0-104.448 43.8784z" fill="#91D5FF" /></svg>