<?xml version="1.0" standalone="no"?><!DOCTYPE svg PUBLIC "-//W3C//DTD SVG 1.1//EN" "http://www.w3.org/Graphics/SVG/1.1/DTD/svg11.dtd"><svg class="icon" width="200px" height="200.00px" viewBox="0 0 1024 1024" version="1.1" xmlns="http://www.w3.org/2000/svg"><path d="M389.120512 0C174.213632 0 0.000512 174.21312 0.000512 389.12a387.51232 387.51232 0 0 0 88.064 246.55872L0.000512 829.44l266.26048-70.99392A388.73088 388.73088 0 0 0 389.120512 778.24c214.90688 0 389.12-174.21312 389.12-389.12S604.027392 0 389.120512 0z" fill="#FF7A45" /><path d="MNaN NaNmNaN NaNaNaN NaN NaN 1 0 NaN NaN NaN NaN NaN 1 0 NaN NaNZ" fill="#CF5A1A" /><path d="MNaN NaNLNaN NaNlNaN NaNz" fill="#CF5A1A" /><path d="MNaN NaNaNaN NaN NaN 0 0 NaN NaNlNaN NaNaNaN NaN NaN 0 0 NaN NaNz mNaN NaNaNaN NaN NaN 0 0 NaN NaNlNaN NaNaNaN NaN NaN 0 0 NaN NaNz mNaN NaNaNaN NaN NaN 0 0 NaN NaNlNaN NaNaNaN NaN NaN 0 0 NaN NaNz mNaN NaNaNaN NaN NaN 1 0 NaN NaNlNaN NaNaNaN NaN NaN 1 0 NaN NaNz" fill="#FF7A45" /><path d="M578.406912 414.72h-347.8528a30.72 30.72 0 1 1 0-61.44h347.8528a30.72 30.72 0 1 1 0 61.44zM403.456512 563.18976l-179.05664-5.12a30.72 30.72 0 1 1 1.76128-61.41952l179.0464 5.12A30.72 30.72 0 0 1 403.456512 563.2zM588.646912 276.48h-347.8528a30.72 30.72 0 1 1 0-61.44h347.8528a30.72 30.72 0 1 1 0 61.44z" fill="#FFBB96" /></svg>