<?xml version="1.0" standalone="no"?><!DOCTYPE svg PUBLIC "-//W3C//DTD SVG 1.1//EN" "http://www.w3.org/Graphics/SVG/1.1/DTD/svg11.dtd"><svg class="icon" width="200px" height="200.00px" viewBox="0 0 1024 1024" version="1.1" xmlns="http://www.w3.org/2000/svg"><path d="M266.24 911.36h92.16v66.56a46.08 46.08 0 1 1-92.16 0V911.36zM675.84 911.36h92.16v66.56a46.08 46.08 0 1 1-92.16 0V911.36zM655.36 0a30.72 30.72 0 0 1 30.72 30.72v307.2a30.72 30.72 0 0 1-30.72 30.72H368.64a30.72 30.72 0 0 1-30.72-30.72V30.72a30.72 30.72 0 0 1 30.72-30.72h286.72z m-30.72 61.44H399.36v245.76h225.28V61.44z" fill="#CF5A1A" /><path d="M286.72 0h450.56v61.44H286.72z" fill="#CF5A1A" /><path d="M153.6 174.08m71.68 0l573.44 0q71.68 0 71.68 71.68l0 624.64q0 71.68-71.68 71.68l-573.44 0q-71.68 0-71.68-71.68l0-624.64q0-71.68 71.68-71.68Z" fill="#FF7A45" /><path d="M245.76 317.44m61.44 0l409.6 0q61.44 0 61.44 61.44l0 204.8q0 61.44-61.44 61.44l-409.6 0q-61.44 0-61.44-61.44l0-204.8q0-61.44 61.44-61.44Z" fill="#FFBB96" /><path d="M271.2576 768h481.4848a25.6 25.6 0 1 0 0-51.2H271.2576a25.6 25.6 0 1 0 0 51.2zM271.2576 890.88h481.4848a25.6 25.6 0 1 0 0-51.2H271.2576a25.6 25.6 0 1 0 0 51.2z" fill="#FFBB96" /></svg>