<?xml version="1.0" standalone="no"?><!DOCTYPE svg PUBLIC "-//W3C//DTD SVG 1.1//EN" "http://www.w3.org/Graphics/SVG/1.1/DTD/svg11.dtd"><svg class="icon" width="200px" height="200.00px" viewBox="0 0 1024 1024" version="1.1" xmlns="http://www.w3.org/2000/svg"><path d="M153.6 952.32V445.26592C153.6 280.35072 312.51456 143.36 512 143.36s358.4 136.99072 358.4 301.90592V952.32h20.48a81.92 81.92 0 0 0 81.92-81.92V445.26592C972.8 220.14976 764.94848 40.96 512 40.96S51.2 220.14976 51.2 445.26592V870.4a81.92 81.92 0 0 0 81.92 81.92h20.48z" fill="#36CFC9" /><path d="M512 143.36c103.99744 0 200.33536 35.20512 261.55008 94.50496l-24.51456 24.51456a92.16 92.16 0 0 1-103.99744 18.42176C594.75968 257.4336 550.42048 245.76 512 245.76c-38.42048 0-82.75968 11.6736-133.03808 35.03104a92.16 92.16 0 0 1-103.9872-18.41152l-24.5248-24.5248C311.66464 178.56512 408.00256 143.36 512 143.36zM153.6 655.36h122.88a61.44 61.44 0 0 1 61.44 61.44v174.08a61.44 61.44 0 0 1-61.44 61.44H153.6V655.36zM727.04 655.36h143.36v296.96H727.04a61.44 61.44 0 0 1-61.44-61.44V716.8a61.44 61.44 0 0 1 61.44-61.44z" fill="#08979C" /></svg>