<?xml version="1.0" standalone="no"?><!DOCTYPE svg PUBLIC "-//W3C//DTD SVG 1.1//EN" "http://www.w3.org/Graphics/SVG/1.1/DTD/svg11.dtd"><svg class="icon" width="200px" height="200.00px" viewBox="0 0 1024 1024" version="1.1" xmlns="http://www.w3.org/2000/svg"><path d="M62.6176 138.42432L337.92 71.68v839.68L101.2224 968.74496A81.92 81.92 0 0 1 0 889.12896V218.03008a81.92 81.92 0 0 1 62.6176-79.60576z" fill="#FF7A45" /><path d="M337.92 71.68l348.16 81.92v839.68l-348.16-81.92z" fill="#CF5A1A" /><path d="M686.08 153.6l236.6976-57.38496A81.92 81.92 0 0 1 1024 175.83104v671.09888a81.92 81.92 0 0 1-62.6176 79.60576L686.08 993.28V153.6z" fill="#FF7A45" /><path d="M266.24 583.68m-204.8 0a204.8 204.8 0 1 0 409.6 0 204.8 204.8 0 1 0-409.6 0Z" fill="#FFBB96" /><path d="M266.24 440.32L163.84 686.08l102.4-49.152L368.64 686.08z" fill="#CF5A1A" /></svg>