<?xml version="1.0" standalone="no"?><!DOCTYPE svg PUBLIC "-//W3C//DTD SVG 1.1//EN" "http://www.w3.org/Graphics/SVG/1.1/DTD/svg11.dtd"><svg class="icon" width="200px" height="200.00px" viewBox="0 0 1024 1024" version="1.1" xmlns="http://www.w3.org/2000/svg"><path d="M512 10.24c-124.416 0-225.28 100.864-225.28 225.28v256c0 110.42816 79.4624 202.30144 184.32 221.56288v67.1232C344.54528 760.66816 240.64 652.61568 240.64 522.24v-71.68a46.08 46.08 0 1 0-92.16 0v71.68c0 181.30944 145.41824 330.71104 322.56 350.94528V942.08H348.16a40.96 40.96 0 0 0 0 81.92h327.68a40.96 40.96 0 0 0 0-81.92H552.96v-68.89472C730.10176 852.95104 875.52 703.54944 875.52 522.24v-71.68a46.08 46.08 0 1 0-92.16 0v71.68c0 130.36544-103.90528 238.42816-230.4 257.96608v-67.1232C657.8176 693.83168 737.28 601.94816 737.28 491.52V235.52c0-124.416-100.864-225.28-225.28-225.28z" fill="#FF7744" /><path d="M737.28 368.64H286.72V235.52c0-124.416 100.864-225.28 225.28-225.28s225.28 100.864 225.28 225.28v133.12z" fill="#E36130" /><path d="M517.12 102.4a30.72 30.72 0 0 1 30.72 30.72v143.36a30.72 30.72 0 1 1-61.44 0V133.12a30.72 30.72 0 0 1 30.72-30.72zM409.6 143.36a30.72 30.72 0 0 1 30.72 30.72v81.92a30.72 30.72 0 1 1-61.44 0v-81.92a30.72 30.72 0 0 1 30.72-30.72z m245.76 30.72a30.72 30.72 0 1 0-61.44 0v81.92a30.72 30.72 0 1 0 61.44 0v-81.92z" fill="#FFA17E" /></svg>