<?xml version="1.0" standalone="no"?><!DOCTYPE svg PUBLIC "-//W3C//DTD SVG 1.1//EN" "http://www.w3.org/Graphics/SVG/1.1/DTD/svg11.dtd"><svg class="icon" width="200px" height="200.00px" viewBox="0 0 1024 1024" version="1.1" xmlns="http://www.w3.org/2000/svg"><path d="M599.1936 913.3568C811.99104 872.6016 972.8 685.48608 972.8 460.8 972.8 206.30528 766.49472 0 512 0S51.2 206.30528 51.2 460.8c0 202.78272 130.99008 374.9888 312.97536 436.5824 1.47456 0.79872 3.03104 1.4848 4.66944 2.048l194.41664 67.1744a286.85312 286.85312 0 0 0 194.37568-2.56 225.40288 225.40288 0 0 1 198.61504 19.9168l15.62624 9.76896a30.72 30.72 0 0 0 32.5632-52.10112l-15.62624-9.76896a286.84288 286.84288 0 0 0-252.74368-25.33376 225.41312 225.41312 0 0 1-136.87808 6.83008z" fill="#36CFC9" /><path d="M599.04 256a81.92 81.92 0 1 0-163.84 0 81.92 81.92 0 0 0 163.84 0z m0 419.84a81.92 81.92 0 1 0-163.84 0 81.92 81.92 0 0 0 163.84 0zM645.12 465.92a81.92 81.92 0 1 1 163.84 0 81.92 81.92 0 0 1-163.84 0z m-337.92-81.92a81.92 81.92 0 1 0 0 163.84 81.92 81.92 0 0 0 0-163.84z" fill="#B5F5EC" /></svg>