<?xml version="1.0" standalone="no"?><!DOCTYPE svg PUBLIC "-//W3C//DTD SVG 1.1//EN" "http://www.w3.org/Graphics/SVG/1.1/DTD/svg11.dtd"><svg class="icon" width="200px" height="200.00px" viewBox="0 0 1024 1024" version="1.1" xmlns="http://www.w3.org/2000/svg"><path d="M798.72 337.92h112.64a81.92 81.92 0 0 1 81.92 81.92v465.92a97.28 97.28 0 0 1-194.56 0V337.92z" fill="#08979C" /><path d="M51.2 112.64a81.92 81.92 0 0 1 81.92-81.92h599.10144a81.92 81.92 0 0 1 81.92 81.92v773.00736A97.39264 97.39264 0 0 0 911.53408 983.04H921.6 133.12a81.92 81.92 0 0 1-81.92-81.92V112.64z" fill="#36CFC9" /><path d="M163.84 194.56m40.96 0l122.88 0q40.96 0 40.96 40.96l0 122.88q0 40.96-40.96 40.96l-122.88 0q-40.96 0-40.96-40.96l0-122.88q0-40.96 40.96-40.96Z" fill="#B5F5EC" /><path d="M450.56 204.8m30.72 0l163.84 0q30.72 0 30.72 30.72l0 0q0 30.72-30.72 30.72l-163.84 0q-30.72 0-30.72-30.72l0 0q0-30.72 30.72-30.72Z" fill="#B5F5EC" /><path d="M450.56 337.92m30.72 0l163.84 0q30.72 0 30.72 30.72l0 0q0 30.72-30.72 30.72l-163.84 0q-30.72 0-30.72-30.72l0 0q0-30.72 30.72-30.72Z" fill="#B5F5EC" /><path d="M163.84 604.16m30.72 0l450.56 0q30.72 0 30.72 30.72l0 0q0 30.72-30.72 30.72l-450.56 0q-30.72 0-30.72-30.72l0 0q0-30.72 30.72-30.72Z" fill="#B5F5EC" /><path d="M163.84 471.04m30.72 0l450.56 0q30.72 0 30.72 30.72l0 0q0 30.72-30.72 30.72l-450.56 0q-30.72 0-30.72-30.72l0 0q0-30.72 30.72-30.72Z" fill="#B5F5EC" /></svg>