<?xml version="1.0" standalone="no"?><!DOCTYPE svg PUBLIC "-//W3C//DTD SVG 1.1//EN" "http://www.w3.org/Graphics/SVG/1.1/DTD/svg11.dtd"><svg class="icon" width="200px" height="200.00px" viewBox="0 0 1024 1024" version="1.1" xmlns="http://www.w3.org/2000/svg"><path d="M143.36 81.92a30.72 30.72 0 0 1 30.72-30.72h163.84a30.72 30.72 0 0 1 30.72 30.72v51.2H143.36V81.92z" fill="#0099EE" /><path d="M81.92 552.96a81.92 81.92 0 0 0-81.92 81.92v256a81.92 81.92 0 0 0 81.92 81.92h256a81.92 81.92 0 0 0 81.92-81.92V552.96H81.92z m860.16 0a81.92 81.92 0 0 1 81.92 81.92v256a81.92 81.92 0 0 1-81.92 81.92H686.08a81.92 81.92 0 0 1-81.92-81.92V552.96h337.92z" fill="#0099EE" /><path d="M880.64 81.92a30.72 30.72 0 0 0-30.72-30.72H686.08a30.72 30.72 0 0 0-30.72 30.72v51.2h225.28V81.92z" fill="#0099EE" /><path d="M71.68 215.04a81.92 81.92 0 0 1 81.92-81.92h215.04a51.2 51.2 0 0 1 51.2 51.2 51.2 51.2 0 0 0 51.2 51.2h81.92a51.2 51.2 0 0 0 51.2-51.2 51.2 51.2 0 0 1 51.2-51.2h215.04a81.92 81.92 0 0 1 81.92 81.92v337.92H604.16a61.44 61.44 0 0 0-61.44-61.44h-61.44a61.44 61.44 0 0 0-61.44 61.44H71.68V215.04z" fill="#29B4FF" /><path d="M419.84 614.4H0v143.36h419.84V614.4z m604.16 143.36H604.16V614.4h419.84v143.36z" fill="#7BD1FF" /><path d="M419.84 552.96V184.32a51.2 51.2 0 0 0 51.2 51.2h81.92a51.2 51.2 0 0 0 51.2-51.2v368.64a61.44 61.44 0 0 0-61.44-61.44h-61.44a61.44 61.44 0 0 0-61.44 61.44z" fill="#0099EE" /></svg>