<?xml version="1.0" standalone="no"?><!DOCTYPE svg PUBLIC "-//W3C//DTD SVG 1.1//EN" "http://www.w3.org/Graphics/SVG/1.1/DTD/svg11.dtd"><svg class="icon" width="200px" height="200.00px" viewBox="0 0 1024 1024" version="1.1" xmlns="http://www.w3.org/2000/svg"><path d="M624.64 737.28l-16.36352 53.16608a102.4 102.4 0 0 0 48.8448 120.0128L696.32 931.84v30.72H327.68v-30.72l39.19872-21.38112a102.4 102.4 0 0 0 48.8448-120.0128L399.36 737.28h225.28z" fill="#40A9FF" /><path d="M624.64 737.28l-16.36352 53.16608a102.4 102.4 0 0 0 48.8448 120.0128L696.32 931.84v51.2H327.68v-51.2l39.19872-21.38112a102.4 102.4 0 0 0 48.8448-120.0128L399.36 737.28h225.28z" fill="#40A9FF" /><path d="M624.64 737.28l-16.36352 53.16608a102.4 102.4 0 0 0 48.8448 120.0128L696.32 931.84H327.68l39.19872-21.38112a102.4 102.4 0 0 0 48.8448-120.0128L399.36 737.28h225.28z" fill="#69C0FF" /><path d="M0 92.16m81.92 0l860.16 0q81.92 0 81.92 81.92l0 573.44q0 81.92-81.92 81.92l-860.16 0q-81.92 0-81.92-81.92l0-573.44q0-81.92 81.92-81.92Z" fill="#40A9FF" /><path d="M81.92 163.84h860.16v522.24H81.92z" fill="#91D5FF" /><path d="M81.92 163.84h860.16L81.92 686.08z" fill="#69C0FF" /><path d="M512 768m-30.72 0a30.72 30.72 0 1 0 61.44 0 30.72 30.72 0 1 0-61.44 0Z" fill="#91D5FF" /></svg>